# xmcd
#
# Track frame offsets: 
#        150
#        23375
#        41849
#        59169
#        79123
#        105031
#        131297
#        149264
#        175050
#        189777
#        198623
#
# Disc length: 2987 seconds
#
# Revision: 0
# Processed by: cddbd v1.5.2PL0 Copyright (c) Steve Scherf et al.
# Submitted via: ExactAudioCopy v0.99pb4
#
DISCID=880ba90b
DTITLE=Nicole Hart - Treasure
DYEAR=1900
DGENRE=Blues
TTITLE0=Can't Ever Let You Go
TTITLE1=Heart Trouble
TTITLE2=You Were Lyin' to Me
TTITLE3=Higher Ground
TTITLE4=No Cuttin' Loose
TTITLE5=Treasure
TTITLE6=I Just Want to Cry
TTITLE7=Singing the Blues
TTITLE8=Gin House Blues
TTITLE9=It Feels So Right
TTITLE10=The Other Side of the World
EXTD=
EXTT0=
EXTT1=
EXTT2=
EXTT3=
EXTT4=
EXTT5=
EXTT6=
EXTT7=
EXTT8=
EXTT9=
EXTT10=
PLAYORDER=
